# xmcd CD database file
#
# Track frame offsets:
#	150
#	27222
#	59347
#	99222
#	136105
#	168492
#
# Disc length: 2724 seconds
#
# Revision: 1
# Processed by: cddbd v1.5.2PL0 Copyright (c) Steve Scherf et al.
# Submitted via: CDex 1.70beta2
#
DISCID=420aa206
DTITLE=Monty Alexander - Jamento
DYEAR=1978
DGENRE=Jazz
TTITLE0=Accompony
TTITLE1=Slippery
TTITLE2=Sugar Loaf at Twilight
TTITLE3=Weekend in L.A.
TTITLE4=Jamento
TTITLE5=Mango Rengue
EXTD=YEAR: 1978
EXTT0=
EXTT1=
EXTT2=
EXTT3=
EXTT4=
EXTT5=
PLAYORDER=
